<?xml version="1.0" standalone="no"?>
<!DOCTYPE svg PUBLIC "-//W3C//DTD SVG 20010904//EN"
 "http://www.w3.org/TR/2001/REC-SVG-20010904/DTD/svg10.dtd">
<svg version="1.0" xmlns="http://www.w3.org/2000/svg"
 width="2815.000000pt" height="2815.000000pt" viewBox="0 0 2815.000000 2815.000000"
 preserveAspectRatio="xMidYMid meet">

<g transform="translate(0.000000,2815.000000) scale(0.100000,-0.100000)"
fill="#000000" stroke="none">
<path d="M7647 13353 c0 -3932 4 -7206 8 -7278 44 -887 297 -1812 711 -2603
619 -1182 1568 -2130 2748 -2747 1278 -669 2782 -882 4212 -600 1931 382 3594
1645 4483 3405 371 734 575 1434 667 2290 14 128 18 299 21 986 l4 831 777 6
c766 6 919 12 1208 47 1633 200 3106 1001 4164 2265 774 925 1277 2059 1434
3236 46 345 51 432 51 899 -1 466 -7 569 -56 905 -129 889 -441 1737 -917
2495 -421 669 -973 1267 -1602 1736 -860 641 -1862 1058 -2903 1209 -392 56
-422 58 -1314 62 l-833 4 0 -1620 0 -1620 743 -4 c777 -4 811 -6 1052 -53 510
-100 984 -317 1387 -635 133 -105 412 -385 517 -518 364 -460 584 -980 668
-1581 27 -191 24 -635 -5 -827 -68 -452 -207 -842 -431 -1212 -529 -872 -1439
-1440 -2451 -1531 -65 -5 -410 -10 -797 -10 l-683 0 0 2373 c0 1306 -3 3468
-7 4805 l-6 2432 -6426 0 -6426 0 2 -7147z m9613 722 l0 -3185 -3185 0 -3185
0 0 3185 0 3185 3185 0 3185 0 0 -3185z m-3 -7177 c-3 -624 -7 -762 -21 -861
-103 -731 -411 -1353 -922 -1863 -526 -524 -1216 -846 -1963 -914 -167 -16
-541 -8 -701 15 -378 53 -782 187 -1106 367 -937 520 -1548 1456 -1644 2518
-5 65 -10 410 -10 798 l0 682 3186 0 3185 0 -4 -742z"/>
</g>
</svg>
