<?xml version="1.0" encoding="UTF-8"?>
<svg version="1.1" xmlns="http://www.w3.org/2000/svg" width="2815" height="2815">
<path d="M0 0 C1.14540253 0.00060425 2.29080505 0.0012085 3.47091675 0.00183105 C21.64687078 0.02778201 39.64737693 0.43324976 57.75 2.1875 C58.74891266 2.28224609 58.74891266 2.28224609 59.76800537 2.37890625 C142.63135153 10.26674089 221.97861943 33.72478952 438.97265625 172.5234375 C440.93706904 174.36264596 442.90602005 176.19693227 444.875 178.03125 C446.29192169 179.35389352 447.70859174 180.67680667 449.125 182 C449.77903809 182.61012939 450.43307617 183.22025879 451.10693359 183.84887695 C462.33170341 194.36584282 462.33170341 194.36584282 467.25 200.1875 C469.4955794 202.79397609 471.79551512 205.27684521 474.25 207.6875 C477.96213359 211.35046626 481.35680882 215.22984601 484.75 219.1875 C485.65715539 220.2308138 486.56474081 221.27375379 487.47265625 222.31640625 C493.97617138 229.81060786 500.24201661 237.45086818 506.30078125 245.30859375 C507.83119722 247.29277187 509.36886187 249.27122063 510.90625 251.25 C534.92763144 282.28466094 555.49831373 315.4685102 573.75 350.1875 C574.24854492 351.13254395 574.74708984 352.07758789 575.26074219 353.05126953 C613.60102484 426.2314201 635.44163475 508.16275969 644.05418181 645.03615594 C644.03489745 649.25335043 644.03362529 653.47055813 644.03010559 657.68778992 C644.02093199 665.60563025 643.99652676 673.52334019 643.96605712 681.44112414 C643.93204353 690.48411312 643.91591152 699.52710972 643.90097082 708.57014716 C643.86995627 727.10933758 643.81749571 745.64840817 643.75 764.1875 C644.49025232 764.18565641 645.23050465 764.18381283 645.99318886 764.18191338 C664.15451442 764.13739934 682.31582884 764.10448278 700.47719765 764.08387566 C709.26053473 764.0736408 718.04383501 764.05973318 726.82714844 764.03662109 C734.49857753 764.01644471 742.16997994 764.0037273 749.84143484 763.99932301 C753.88895887 763.99675581 757.93640666 763.99089326 761.98390579 763.97603989 C787.9195695 763.88462204 813.66023842 764.78367517 839.4375 767.9375 C840.46346786 768.06105362 840.46346786 768.06105362 841.51016235 768.18710327 C903.59391825 775.71649042 964.4971164 791.96139038 1021.75 817.1875 C1022.83603516 817.66509766 1023.92207031 818.14269531 1025.04101562 818.63476562 C1075.4720807 840.99142855 1123.52400362 869.57142169 1166.05761719 904.79492188 C1168.30554533 906.64463078 1170.58883383 908.44787553 1172.875 910.25 C1183.29051186 918.57194163 1193.24436817 927.41318184 1202.97265625 936.5234375 C1204.93706904 938.36264596 1206.90602005 940.19693227 1208.875 942.03125 C1210.29192169 943.35389352 1211.70859174 944.67680667 1213.125 946 C1213.77903809 946.61012939 1214.43307617 947.22025879 1215.10693359 947.84887695 C1226.33170341 958.36584282 1226.33170341 958.36584282 1231.25 964.1875 C1233.4955794 966.79397609 1235.79551512 969.27684521 1238.25 971.6875 C1241.96213359 975.35046626 1245.35680882 979.22984601 1248.75 983.1875 C1249.65715539 984.2308138 1250.56474081 985.27375379 1251.47265625 986.31640625 C1257.97972521 993.81470305 1264.2479251 1001.45945447 1270.30957031 1009.32177734 C1271.81195385 1011.26774598 1273.3238294 1013.2061123 1274.8359375 1015.14453125 C1298.88889121 1046.12532273 1319.57486624 1079.45451133 1337.75 1114.1875 C1338.21857422 1115.07937012 1338.68714844 1115.97124023 1339.16992188 1116.89013672 C1352.00059784 1141.46406611 1362.56696449 1167.0488719 1371.75 1193.1875 C1372.15814941 1194.33557129 1372.56629883 1195.48364258 1372.98681641 1196.66650391 C1401.00010967 1275.91909442 1410.33730028 1358.58643778 1391.75 1554.1875 C1391.58713501 1554.89009949 1391.42427002 1555.59269897 1391.25646973 1556.31658936 C1385.79640899 1579.73877496 1378.80711149 1602.53356493 1370.75 1625.1875 C1370.39938507 1626.17426727 1370.39938507 1626.17426727 1370.04168701 1627.18096924 C1356.75087383 1664.45280247 1339.81708061 1700.57693795 1319.38037109 1734.46923828 C1317.82062059 1737.06975671 1316.29054035 1739.68527174 1314.76953125 1742.30859375 C1307.11990159 1755.42463665 1298.59653782 1767.85332193 1289.75 1780.1875 C1289.13302246 1781.04827148 1288.51604492 1781.90904297 1287.88037109 1782.79589844 C1280.31996004 1793.2974913 1272.44028317 1803.48116937 1264.18701172 1813.44628906 C1262.10496868 1815.9690772 1260.05593205 1818.5184177 1258 1821.0625 C1254.48332218 1825.35851484 1250.83165718 1829.50813937 1247.0859375 1833.60546875 C1245.17024578 1835.72298084 1243.28768605 1837.86116691 1241.4140625 1840.015625 C1229.10768002 1854.10756846 1216.14036881 1868.31430918 1201.82421875 1880.39453125 C1199.53927565 1882.36965155 1197.33668665 1884.41914724 1195.13037109 1886.48120117 C1189.83248741 1891.42991657 1184.45539025 1896.19220868 1178.796875 1900.73046875 C1176.49471342 1902.58695546 1174.21817659 1904.46245624 1171.953125 1906.36328125 C1161.53085986 1915.08941495 1150.79241164 1923.26364981 1139.75 1931.1875 C1138.95754883 1931.75968262 1138.16509766 1932.33186523 1137.34863281 1932.92138672 C1109.66727626 1952.85848728 1080.17056971 1969.80952718 1049.75 1985.1875 C1048.73550781 1985.70280273 1047.72101562 1986.21810547 1046.67578125 1986.74902344 C974.20896214 2023.32001134 893.51905571 2044.01684522 780.88867188 2051.30102539 C779.37894187 2051.30074232 777.86921173 2051.30090358 776.35948181 2051.3014679 C772.31715731 2051.3017512 768.27486335 2051.29593103 764.23254585 2051.28889394 C759.98718552 2051.28258164 755.74182426 2051.28205044 751.49645996 2051.28086853 C743.48235276 2051.27777819 735.46825944 2051.26959622 727.45415831 2051.25951904 C718.3197429 2051.24828598 709.18532679 2051.24282944 700.05090618 2051.23782361 C681.28392963 2051.22741133 662.51696594 2051.20985704 643.75 2051.1875 C643.75184359 2051.92775232 643.75368717 2052.66800465 643.75558662 2053.43068886 C643.80010066 2071.59201442 643.83301722 2089.75332884 643.85362434 2107.91469765 C643.8638592 2116.69803473 643.87776682 2125.48133501 643.90087891 2134.26464844 C643.92105529 2141.93607753 643.9337727 2149.60747994 643.93817699 2157.27893484 C643.94074419 2161.32645887 643.94660674 2165.37390666 643.96146011 2169.42140579 C644.05287796 2195.3570695 643.15382483 2221.09773842 640 2246.875 C639.87644638 2247.90096786 639.87644638 2247.90096786 639.75039673 2248.94766235 C631.12476162 2320.07055914 610.78590958 2388.6713252 579.75 2453.1875 C579.29415527 2454.1377002 578.83831055 2455.08790039 578.36865234 2456.06689453 C565.78603505 2482.14220687 551.18785928 2507.34677502 534.75 2531.1875 C534.25951172 2531.90196289 533.76902344 2532.61642578 533.26367188 2533.35253906 C515.02012095 2559.87784363 495.0489485 2585.09729472 473.13427734 2608.68994141 C471.7329388 2610.20595739 470.34375039 2611.73232708 468.95703125 2613.26171875 C463.27919536 2619.50482591 457.45593701 2625.58369552 451.5 2631.5625 C450.85071533 2632.21637695 450.20143066 2632.87025391 449.5324707 2633.54394531 C445.69855398 2637.36569397 441.74904132 2640.99341502 437.65185547 2644.53076172 C434.84870835 2646.97263032 432.14860635 2649.51958068 429.4375 2652.0625 C424.59174969 2656.56981472 419.62503817 2660.85688198 414.4609375 2665 C411.70332163 2667.22516554 409.01023923 2669.51526547 406.3125 2671.8125 C398.53650205 2678.30088121 390.40662796 2684.3158246 382.26220703 2690.33105469 C380.66952418 2691.50799934 379.07907316 2692.68797515 377.49169922 2693.87207031 C348.7835067 2715.27781586 317.72415958 2733.16165536 285.75 2749.1875 C284.63189941 2749.74856445 283.51379883 2750.30962891 282.36181641 2750.88769531 C217.05776436 2783.45937911 146.23933645 2803.20227623 73.92248535 2811.92321777 C71.87803847 2812.17192416 69.83495705 2812.43178256 67.79199219 2812.69238281 C22.33426235 2818.28914129 -26.83159912 2817.89350894 -72.25 2812.1875 C-73.68177553 2812.01393023 -75.11357963 2811.84059599 -76.54541016 2811.66748047 C-144.48185178 2803.33050814 -210.57623925 2784.77688699 -272.484375 2755.49023438 C-275.17970788 2754.22061076 -277.88493075 2752.97491833 -280.59375 2751.734375 C-293.02176889 2745.99587438 -304.90835499 2739.48606614 -316.75146484 2732.62841797 C-318.87415479 2731.40425185 -321.00434116 2730.19708936 -323.14453125 2729.00390625 C-351.93020012 2712.88527211 -379.13548533 2693.63836196 -404.52636719 2672.61132812 C-406.96230065 2670.59909527 -409.42042475 2668.6144225 -411.875 2666.625 C-429.84587184 2651.88454168 -429.84587184 2651.88454168 -436.5793457 2644.85717773 C-438.21931967 2643.21816239 -439.92112872 2641.73081459 -441.69140625 2640.234375 C-446.93459135 2635.67479656 -451.82240205 2630.7651528 -456.72290039 2625.8449707 C-458.30959946 2624.25291034 -459.90157742 2622.6662701 -461.49414062 2621.08007812 C-466.95757322 2615.62021494 -472.22968759 2610.06081523 -477.25 2604.1875 C-478.86967817 2602.41179779 -480.49411718 2600.64041693 -482.125 2598.875 C-486.1425787 2594.46531527 -489.97665604 2589.95327023 -493.71875 2585.30859375 C-495.60804498 2582.96461049 -497.53147352 2580.65213263 -499.46875 2578.34765625 C-507.31648646 2568.98455558 -514.65471537 2559.37328406 -521.69287109 2549.38867188 C-523.19509524 2547.26511388 -524.71381644 2545.15450411 -526.23828125 2543.046875 C-579.66959804 2468.84948225 -615.21051131 2382.48120231 -641.48828125 2229.015625 C-641.55153091 2228.35949722 -641.61478058 2227.70336945 -641.6799469 2227.02735901 C-642.85940774 2214.15197635 -643.39847182 2201.3453786 -643.36352539 2188.41796875 C-643.36324231 2186.91809084 -643.3634036 2185.41821279 -643.3639679 2183.91833496 C-643.36425117 2179.90286902 -643.35843155 2175.88743383 -643.35139394 2171.87197495 C-643.34508107 2167.65464185 -643.34455039 2163.4373078 -643.34336853 2159.2199707 C-643.34027836 2151.25898741 -643.33209662 2143.29801808 -643.32201904 2135.3370409 C-643.31078546 2126.26308385 -643.30532931 2117.18912609 -643.30032361 2108.1151638 C-643.2899117 2089.47260132 -643.27235774 2070.83005179 -643.25 2052.1875 C-643.88809947 2052.18842179 -644.52619894 2052.18934359 -645.18363476 2052.19029331 C-660.85774814 2052.2125758 -676.53185586 2052.22902062 -692.20598125 2052.23931217 C-699.78649662 2052.24442396 -707.36700128 2052.2513664 -714.94750977 2052.26293945 C-721.57040074 2052.27304553 -728.19328396 2052.27939039 -734.81618243 2052.28158849 C-738.30864953 2052.2828692 -741.80109447 2052.28578049 -745.29355431 2052.29323006 C-769.51560015 2052.34282228 -793.79350729 2052.13727652 -817.9375 2050 C-818.63869965 2049.93847748 -819.33989929 2049.87695496 -820.06234741 2049.81356812 C-902.91891426 2042.42432123 -982.22020322 2019.09523608 -1168.52636719 1908.61132812 C-1170.96230065 1906.59909527 -1173.42042475 1904.6144225 -1175.875 1902.625 C-1193.84587184 1887.88454168 -1193.84587184 1887.88454168 -1200.5793457 1880.85717773 C-1202.21931967 1879.21816239 -1203.92112872 1877.73081459 -1205.69140625 1876.234375 C-1210.93459135 1871.67479656 -1215.82240205 1866.7651528 -1220.72290039 1861.8449707 C-1222.30959946 1860.25291034 -1223.90157742 1858.6662701 -1225.49414062 1857.08007812 C-1230.95757322 1851.62021494 -1236.22968759 1846.06081523 -1241.25 1840.1875 C-1242.86967817 1838.41179779 -1244.49411718 1836.64041693 -1246.125 1834.875 C-1251.04618347 1829.47279859 -1255.66501653 1823.87520102 -1260.25 1818.1875 C-1261.25934094 1816.95744984 -1262.26982598 1815.7283379 -1263.28125 1814.5 C-1293.98938779 1777.13087182 -1319.54702108 1736.37561894 -1341.25 1693.1875 C-1341.7951123 1692.11193848 -1342.34022461 1691.03637695 -1342.90185547 1689.92822266 C-1376.8657956 1622.62269155 -1396.9268552 1548.28892768 -1404.5625 1473.4375 C-1404.64390228 1472.63996307 -1404.72530457 1471.84242615 -1404.80917358 1471.02072144 C-1406.88696952 1450.34653124 -1407.49373623 1429.83754886 -1407.5 1409.0625 C-1407.50044186 1408.38969624 -1407.50088371 1407.71689247 -1407.50133896 1407.02370071 C-1407.50925734 1383.96687714 -1406.88335718 1361.10894164 -1404.25 1338.1875 C-1404.12271515 1337.07127258 -1404.12271515 1337.07127258 -1403.99285889 1335.93249512 C-1393.68741659 1246.66013571 -1365.40462552 1159.21206699 -1285.25 1030.1875 C-1284.24189401 1028.81792432 -1283.23407743 1027.44813555 -1282.2265625 1026.078125 C-1275.63793529 1017.16359274 -1268.7520646 1008.52004995 -1261.70605469 999.96386719 C-1260.41038703 998.38317002 -1259.12987367 996.79007855 -1257.8515625 995.1953125 C-1253.33573209 989.57090279 -1248.60550612 984.21117381 -1243.67358398 978.95239258 C-1241.06759888 976.17306035 -1238.52411042 973.35831411 -1236.03930664 970.46972656 C-1232.39159505 966.29359002 -1228.55464063 962.34729895 -1224.62890625 958.43359375 C-1223.92531479 957.72904556 -1223.22172333 957.02449738 -1222.49681091 956.29859924 C-1221.01985352 954.82096633 -1219.54165258 953.34457543 -1218.06225586 951.86938477 C-1215.81834915 949.63083519 -1213.57983296 947.38699527 -1211.34179688 945.14257812 C-1209.89615382 943.69759596 -1208.45020055 942.25292408 -1207.00390625 940.80859375 C-1206.3453212 940.14798447 -1205.68673615 939.48737518 -1205.00819397 938.80674744 C-1200.58258138 934.40301803 -1195.98918176 930.25045028 -1191.25 926.1875 C-1190.16762578 925.24909336 -1189.08553273 924.31036215 -1188.00390625 923.37109375 C-1172.87356061 910.32420165 -1157.47544132 897.85457744 -1141.25 886.1875 C-1140.17516357 885.41043701 -1140.17516357 885.41043701 -1139.07861328 884.61767578 C-1069.73850515 834.56996963 -990.63620122 798.94322944 -837.1875 767.9375 C-835.89046143 767.78627686 -834.59342285 767.63505371 -833.25708008 767.47924805 C-806.63550414 764.54623326 -779.88498317 763.8805981 -753.12867498 763.98471212 C-749.23977296 763.99756694 -745.35086458 763.99841637 -741.46194458 764.00076294 C-734.16027442 764.00687905 -726.8586671 764.02314982 -719.55702412 764.04346192 C-711.21783013 764.06613636 -702.87863247 764.07689202 -694.53941512 764.08685279 C-677.4429076 764.10753003 -660.34646052 764.14250458 -643.25 764.1875 C-643.25276538 763.08485211 -643.25276538 763.08485211 -643.25558662 761.95992851 C-643.3001036 743.92378105 -643.3330186 725.88764481 -643.35362434 707.85145378 C-643.36385854 699.12865071 -643.37776485 690.40588471 -643.40087891 681.68310547 C-643.42105736 674.06441408 -643.43377317 666.44574958 -643.43817699 658.82703221 C-643.44074386 654.80745361 -643.4466041 650.7879518 -643.46146011 646.76839828 C-643.55391193 620.72469865 -642.55217421 594.89225888 -639.5 569 C-639.41696625 568.29001862 -639.3339325 567.58003723 -639.24838257 566.84854126 C-631.17407888 498.45328331 -611.73121353 432.13548712 -582.47851562 369.81640625 C-581.37116776 367.44678745 -580.28270086 365.06986422 -579.203125 362.6875 C-555.89764955 311.58141 -522.59640124 264.40553324 -486.0625 221.9375 C-485.59473145 221.39037354 -485.12696289 220.84324707 -484.64501953 220.27954102 C-474.22429751 208.24637079 -463.08561956 196.85568646 -451.81591797 185.62304688 C-449.85134799 183.66391344 -447.89228552 181.69938356 -445.93359375 179.734375 C-439.87534809 173.67259471 -433.81362382 167.70686833 -427.25 162.1875 C-426.05773579 161.14308569 -424.86763793 160.09619334 -423.6796875 159.046875 C-416.53489956 152.7842456 -409.2771779 146.73790425 -401.76171875 140.92578125 C-399.38070792 139.08213982 -397.03369187 137.20472418 -394.70703125 135.29296875 C-385.681714 127.89544715 -376.26600849 121.25897424 -366.57446289 114.7644043 C-364.13606327 113.11020588 -361.72726132 111.41834098 -359.3203125 109.71875 C-343.91244059 98.90064695 -327.71527401 89.29156595 -311.25 80.1875 C-310.22229492 79.61418945 -309.19458984 79.04087891 -308.13574219 78.45019531 C-241.5998447 41.45488452 -168.28365322 17.6429427 0 0 Z M-207.78320312 403.88378906 C-209.09042443 405.04566686 -210.41148634 406.19193001 -211.734375 407.3359375 C-223.86783287 417.96289221 -235.3596485 429.4407293 -245.25 442.1875 C-246.19755571 443.34877991 -247.14829595 444.50746589 -248.1015625 445.6640625 C-255.07061869 454.15558258 -261.38612786 462.89995472 -267.25 472.1875 C-267.61657715 472.76371094 -267.9831543 473.33992187 -268.36083984 473.93359375 C-291.00341042 509.77163277 -306.39334306 549.65742645 -313.5 591.4375 C-313.65106201 592.32155518 -313.80212402 593.20561035 -313.95776367 594.11645508 C-322.8957265 650.10853242 -317.25 707.48653083 -317.25 764.1875 C-107.37 764.1875 102.51 764.1875 318.75 764.1875 C320.92762984 687.40630394 320.92762984 687.40630394 316.5 606.6875 C316.37141602 605.67236328 316.24283203 604.65722656 316.11035156 603.61132812 C308.18595958 544.13263545 283.66757077 481.64653275 241.91015625 437.48828125 C240.10347788 435.5639891 238.3854265 433.60424726 236.66796875 431.6015625 C232.45112511 426.76553676 227.96297899 422.21439898 223.42675781 417.67895508 C222.01080053 416.26081716 220.60301711 414.83453335 219.1953125 413.40820312 C213.02697328 407.22697741 206.61176445 401.58459202 199.75 396.1875 C199.02941406 395.61298096 198.30882812 395.03846191 197.56640625 394.4465332 C142.01304198 350.40161466 72.65028943 325.98658725 1.75 325.9375 C0.42908356 325.93648788 0.42908356 325.93648788 -0.91851807 325.93545532 C-76.61974262 326.02703698 -151.10477074 353.40565491 -207.78320312 403.88378906 Z M-903.25 1122.1875 C-904.47589844 1122.77192871 -904.47589844 1122.77192871 -905.7265625 1123.36816406 C-926.95448346 1133.60780775 -947.23353667 1146.98786959 -965.25 1162.1875 C-965.80913086 1162.64801758 -966.36826172 1163.10853516 -966.94433594 1163.58300781 C-982.34059354 1176.27279227 -997.08806164 1190.34223174 -1009.25 1206.1875 C-1010.16949899 1207.31031383 -1011.09297436 1208.4298783 -1012.01953125 1209.546875 C-1050.48664697 1256.15378995 -1073.27918442 1314.42300763 -1080.25 1374.1875 C-1080.34571289 1374.93894287 -1080.44142578 1375.69038574 -1080.54003906 1376.46459961 C-1083.44561284 1402.62778144 -1082.84233332 1431.28393431 -1078.25 1457.1875 C-1078.05132324 1458.3228418 -1077.85264648 1459.45818359 -1077.64794922 1460.62792969 C-1067.0023342 1519.65327975 -1041.52231304 1575.57693211 -1000.51171875 1619.7421875 C-998.5595112 1621.8528644 -996.67693722 1623.99977557 -994.8125 1626.1875 C-987.88691871 1634.14211813 -980.23747112 1641.31995284 -972.25 1648.1875 C-971.61441162 1648.73510986 -970.97882324 1649.28271973 -970.32397461 1649.84692383 C-873.83961273 1732.34123861 -766.87210321 1726.1875 -643.25 1726.1875 C-643.25 1516.3075 -643.25 1306.4275 -643.25 1090.1875 C-778.86805279 1086.18384319 -778.86805279 1086.18384319 -903.25 1122.1875 Z M-317.25 1090.1875 C-317.25 1300.0675 -317.25 1509.9475 -317.25 1726.1875 C-107.37 1726.1875 102.51 1726.1875 318.75 1726.1875 C318.75 1516.3075 318.75 1306.4275 318.75 1090.1875 C108.87 1090.1875 -101.01 1090.1875 -317.25 1090.1875 Z M643.75 1090.1875 C643.75 1299.7375 643.75 1509.2875 643.75 1725.1875 C822.24036838 1728.81133016 822.24036838 1728.81133016 970.75 1649.1875 C971.44867187 1648.58808594 972.14734375 1647.98867187 972.8671875 1647.37109375 C974.84870025 1645.66501949 976.80255093 1643.93238594 978.75 1642.1875 C979.72453125 1641.31738281 980.6990625 1640.44726562 981.703125 1639.55078125 C1006.51421988 1617.17258632 1026.71137746 1590.43474601 1042.75 1561.1875 C1043.4320752 1559.96474365 1043.4320752 1559.96474365 1044.12792969 1558.71728516 C1051.93003983 1544.68276863 1058.16672222 1530.23539624 1063.75 1515.1875 C1064.05276855 1514.3718457 1064.35553711 1513.55619141 1064.66748047 1512.71582031 C1070.73606323 1496.08711682 1074.91160644 1478.78837751 1078 1461.375 C1078.15098145 1460.53042236 1078.30196289 1459.68584473 1078.45751953 1458.81567383 C1081.28402589 1441.94426693 1082.12688033 1425.21057471 1082.0625 1408.125 C1082.06034485 1407.09191711 1082.0581897 1406.05883423 1082.05596924 1404.9944458 C1082.00320356 1389.20347663 1081.52330273 1373.77082008 1078.75 1358.1875 C1078.55132324 1357.04829102 1078.35264648 1355.90908203 1078.14794922 1354.73535156 C1068.57058901 1301.34605218 1046.45447162 1250.95922148 1012.11523438 1208.86132812 C1011.23389921 1207.78077843 1010.35723604 1206.69639329 1009.48632812 1205.60742188 C1002.44696841 1196.83293138 994.61264506 1188.84194515 986.6875 1180.875 C986.18070709 1180.36294006 985.67391418 1179.85088013 985.15176392 1179.32330322 C978.35821853 1172.4752469 971.3469549 1166.15397464 963.75 1160.1875 C963.03030029 1159.61378662 962.31060059 1159.04007324 961.5690918 1158.44897461 C941.79934451 1142.77166804 920.47143419 1130.084403 897.75 1119.1875 C897.09966797 1118.86958496 896.44933594 1118.55166992 895.77929688 1118.22412109 C816.94096366 1079.9506347 729.29062218 1090.1875 643.75 1090.1875 Z M-317.25 2052.1875 C-320.8063414 2141.81606054 -320.8063414 2141.81606054 -312 2233.6875 C-311.78947998 2234.70336182 -311.57895996 2235.71922363 -311.36206055 2236.76586914 C-297.09778695 2303.52923964 -261.01567739 2368.04859209 -208.25 2412.1875 C-207.71020508 2412.64108887 -207.17041016 2413.09467773 -206.61425781 2413.56201172 C-163.20778362 2449.89664461 -111.94350928 2474.72447806 -56.25 2485.1875 C-55.37794922 2485.35330566 -54.50589844 2485.51911133 -53.60742188 2485.68994141 C-33.65811132 2489.36626922 -12.52293225 2491.13483328 7.75 2490.1875 C8.72211426 2490.14641113 9.69422852 2490.10532227 10.69580078 2490.06298828 C87.81636354 2486.53341727 158.82097496 2457.22217447 215.75 2405.1875 C216.69746094 2404.34445312 217.64492187 2403.50140625 218.62109375 2402.6328125 C278.00153582 2349.5715072 311.21994335 2271.54817977 317.75 2193.1875 C317.75 2146.6575 317.75 2100.1275 317.75 2052.1875 C108.2 2052.1875 -101.35 2052.1875 -317.25 2052.1875 Z " fill="#0391CD" transform="translate(1407.25,-0.1875)"/>
<path d="M0 0 C0.66602216 -0.00008301 1.33204432 -0.00016601 2.01824898 -0.00025153 C36.38840822 -0.00453113 70.75856435 0.00022812 105.12872253 0.0088899 C127.43290679 0.01450965 149.73709008 0.01765568 172.04127502 0.01864815 C173.16929973 0.01869977 173.16929973 0.01869977 174.3201128 0.01875243 C181.19380688 0.01906585 188.06750096 0.01935351 194.94119504 0.0196104 C211.98923147 0.02024784 229.03726787 0.02120593 246.08530426 0.0223856 C247.24672599 0.02246557 247.24672599 0.02246557 248.43161079 0.02254717 C285.62253914 0.02513609 322.81346672 0.03142939 360.00439453 0.03808594 C372.82611083 0.04037869 385.64782714 0.04265455 398.46954346 0.04486084 C399.66320384 0.04506626 399.66320384 0.04506626 400.88097858 0.04527584 C438.23940664 0.05168179 475.59783483 0.05536516 512.95626329 0.05839563 C515.39716688 0.05859369 517.83807047 0.05879288 520.27897406 0.05899231 C536.46200998 0.0603127 552.64504591 0.06158724 568.82808183 0.06283117 C600.99756946 0.06530433 633.16705707 0.06804586 665.33654466 0.07097322 C666.8667443 0.07111246 668.39694394 0.07125152 669.92714358 0.07139038 C751.90478508 0.0788317 833.88242578 0.09090703 972.68554688 0.11352539 C972.73263956 19.02257972 972.76771566 37.93162186 972.78917122 56.84072304 C972.79940607 65.62406012 972.81331369 74.4073604 972.83642578 83.19067383 C972.85660217 90.86210292 972.86931958 98.53350533 972.87372386 106.20496023 C972.87629106 110.25248426 972.88215362 114.29993205 972.89700699 118.34743118 C972.98842483 144.28309489 972.0893717 170.02376382 968.93554688 195.80102539 C968.81199326 196.82699326 968.81199326 196.82699326 968.6859436 197.87368774 C960.06030849 268.99658453 939.72145645 337.59735059 908.68554688 402.11352539 C908.22970215 403.06372559 907.77385742 404.01392578 907.30419922 404.99291992 C894.72158193 431.06823226 880.12340615 456.27280041 863.68554688 480.11352539 C862.94981445 481.18521973 862.94981445 481.18521973 862.19921875 482.27856445 C843.95566782 508.80386902 823.98449538 534.02332011 802.06982422 557.6159668 C800.66848568 559.13198278 799.27929727 560.65835247 797.89257812 562.18774414 C792.21474224 568.4308513 786.39148389 574.50972091 780.43554688 580.48852539 C779.78626221 581.14240234 779.13697754 581.7962793 778.46801758 582.4699707 C774.63410085 586.29171936 770.6845882 589.91944041 766.58740234 593.45678711 C763.78425522 595.89865571 761.08415322 598.44560607 758.37304688 600.98852539 C753.52729656 605.49584011 748.56058505 609.78290737 743.39648438 613.92602539 C740.63886851 616.15119093 737.94578611 618.44129086 735.24804688 620.73852539 C727.47204893 627.2269066 719.34217483 633.24184999 711.19775391 639.25708008 C709.60507105 640.43402473 708.01462004 641.61400054 706.42724609 642.7980957 C677.71905357 664.20384125 646.65970645 682.08768075 614.68554688 698.11352539 C613.008396 698.95512207 613.008396 698.95512207 611.29736328 699.8137207 C545.99331124 732.3854045 475.17488333 752.12830163 402.85803223 760.84924316 C400.81358534 761.09794955 398.77050392 761.35780795 396.72753906 761.6184082 C351.26980922 767.21516668 302.10394775 766.81953433 256.68554688 761.11352539 C255.25377134 760.93995562 253.82196724 760.76662138 252.39013672 760.59350586 C184.4536951 752.25653353 118.35930762 733.70291238 56.45117188 704.41625977 C53.75583899 703.14663615 51.05061613 701.90094372 48.34179688 700.66040039 C35.91377799 694.92189977 24.02719188 688.41209153 12.18408203 681.55444336 C10.06139209 680.33027724 7.93120571 679.12311475 5.79101562 677.92993164 C-22.99465324 661.8112975 -50.19993846 642.56438735 -75.59082031 621.53735352 C-78.02675377 619.52512066 -80.48487788 617.54044789 -82.93945312 615.55102539 C-100.91032496 600.81056707 -100.91032496 600.81056707 -107.64379883 593.78320312 C-109.2837728 592.14418778 -110.98558184 590.65683998 -112.75585938 589.16040039 C-117.99904448 584.60082195 -122.88685517 579.69117819 -127.78735352 574.77099609 C-129.37405259 573.17893573 -130.96603054 571.59229549 -132.55859375 570.00610352 C-138.02202634 564.54624033 -143.29414072 558.98684062 -148.31445312 553.11352539 C-149.93413129 551.33782318 -151.5585703 549.56644232 -153.18945312 547.80102539 C-157.20703182 543.39134066 -161.04110917 538.87929562 -164.78320312 534.23461914 C-166.6724981 531.89063588 -168.59592664 529.57815802 -170.53320312 527.27368164 C-178.38093959 517.91058097 -185.71916849 508.29930945 -192.75732422 498.31469727 C-194.25954837 496.19113927 -195.77826957 494.0805295 -197.30273438 491.97290039 C-250.73405116 417.77550764 -286.27496444 331.4072277 -312.55273438 177.94165039 C-312.61598404 177.28552261 -312.6792337 176.62939484 -312.74440002 175.9533844 C-313.92386075 163.07800303 -314.46283538 150.2713916 -314.42797852 137.34399414 C-314.42767111 135.8201752 -314.42780748 134.29635611 -314.42834377 132.77253723 C-314.42856661 128.74576582 -314.42283319 124.71902502 -314.41573334 120.69226074 C-314.41118113 117.68853257 -314.410051 114.6848103 -314.40953324 111.68107909 C-314.4080762 104.37194809 -314.40191272 97.06283272 -314.39252567 89.75370789 C-314.37213746 73.0776485 -314.35963404 56.40158163 -314.34608619 39.7255156 C-314.34252846 35.35736733 -314.33892338 30.9892191 -314.33532286 26.62107086 C-314.3283212 18.11855574 -314.32137007 9.61604058 -314.31445312 1.11352539 C-209.54313545 0.40750012 -104.77376738 0.01230253 0 0 Z M11.68554688 1.11352539 C8.12920548 90.74208593 8.12920548 90.74208593 16.93554688 182.61352539 C17.14606689 183.62938721 17.35658691 184.64524902 17.57348633 185.69189453 C31.83775992 252.45526503 67.91986948 316.97461748 120.68554688 361.11352539 C121.2253418 361.56711426 121.76513672 362.02070313 122.32128906 362.48803711 C165.72776325 398.82267 216.9920376 423.65050345 272.68554688 434.11352539 C273.55759766 434.27933105 274.42964844 434.44513672 275.328125 434.6159668 C295.27743556 438.29229461 316.41261463 440.06085867 336.68554688 439.11352539 C337.65766113 439.07243652 338.62977539 439.03134766 339.63134766 438.98901367 C416.75191042 435.45944266 487.75652183 406.14819986 544.68554688 354.11352539 C545.63300781 353.27047852 546.58046875 352.42743164 547.55664062 351.55883789 C606.93708269 298.49753259 640.15549023 220.47420516 646.68554688 142.11352539 C646.68554688 95.58352539 646.68554688 49.05352539 646.68554688 1.11352539 C437.13554688 1.11352539 227.58554688 1.11352539 11.68554688 1.11352539 Z " fill="#0068B3" transform="translate(1078.314453125,2050.886474609375)"/>
<path d="M0 0 C165.0375 0 165.0375 0 195.6875 3.75 C196.37147858 3.83236908 197.05545715 3.91473816 197.76016235 3.99960327 C259.84391825 11.52899042 320.7471164 27.77389038 378 53 C379.08603516 53.47759766 380.17207031 53.95519531 381.29101562 54.44726562 C431.7220807 76.80392855 479.77400362 105.38392169 522.30761719 140.60742188 C524.55554533 142.45713078 526.83883383 144.26037553 529.125 146.0625 C539.54051186 154.38444163 549.49436817 163.22568184 559.22265625 172.3359375 C561.18706904 174.17514596 563.15602005 176.00943227 565.125 177.84375 C566.54192169 179.16639352 567.95859174 180.48930667 569.375 181.8125 C570.35605713 182.72769409 570.35605713 182.72769409 571.35693359 183.66137695 C582.58170341 194.17834282 582.58170341 194.17834282 587.5 200 C589.7455794 202.60647609 592.04551512 205.08934521 594.5 207.5 C598.21213359 211.16296626 601.60680882 215.04234601 605 219 C605.90715539 220.0433138 606.81474081 221.08625379 607.72265625 222.12890625 C614.22972521 229.62720305 620.4979251 237.27195447 626.55957031 245.13427734 C628.06195385 247.08024598 629.5738294 249.0186123 631.0859375 250.95703125 C655.13889121 281.93782273 675.82486624 315.26701133 694 350 C694.46857422 350.89187012 694.93714844 351.78374023 695.41992188 352.70263672 C708.25059784 377.27656611 718.81696449 402.8613719 728 429 C728.40814941 430.14807129 728.81629883 431.29614258 729.23681641 432.47900391 C757.25010967 511.73159442 766.58730028 594.39893778 748 790 C747.83713501 790.70259949 747.67427002 791.40519897 747.50646973 792.12908936 C742.04640899 815.55127496 735.05711149 838.34606493 727 861 C726.64938507 861.98676727 726.64938507 861.98676727 726.29168701 862.99346924 C713.00087383 900.26530247 696.06708061 936.38943795 675.63037109 970.28173828 C674.07062059 972.88225671 672.54054035 975.49777174 671.01953125 978.12109375 C663.36990159 991.23713665 654.84653782 1003.66582193 646 1016 C645.07453369 1017.29115723 645.07453369 1017.29115723 644.13037109 1018.60839844 C636.56996004 1029.1099913 628.69028317 1039.29366937 620.43701172 1049.25878906 C618.35496868 1051.7815772 616.30593205 1054.3309177 614.25 1056.875 C610.73332218 1061.17101484 607.08165718 1065.32063937 603.3359375 1069.41796875 C601.42024578 1071.53548084 599.53768605 1073.67366691 597.6640625 1075.828125 C585.35768002 1089.92006846 572.39036881 1104.12680918 558.07421875 1116.20703125 C555.78927565 1118.18215155 553.58668665 1120.23164724 551.38037109 1122.29370117 C546.08248741 1127.24241657 540.70539025 1132.00470868 535.046875 1136.54296875 C532.74471342 1138.39945546 530.46817659 1140.27495624 528.203125 1142.17578125 C517.78085986 1150.90191495 507.04241164 1159.07614981 496 1167 C495.20754883 1167.57218262 494.41509766 1168.14436523 493.59863281 1168.73388672 C465.91727626 1188.67098728 436.42056971 1205.62202718 406 1221 C404.98550781 1221.51530273 403.97101562 1222.03060547 402.92578125 1222.56152344 C325.20417226 1261.78438512 239.53313699 1281.59167894 0 1287 C0 1179.42 0 1071.84 0 961 C47.85 960.67 95.7 960.34 145 960 C213.02212252 951.22295193 274.86961785 929.81829884 327 884 C327.69867187 883.40058594 328.39734375 882.80117187 329.1171875 882.18359375 C331.098715 880.4775068 333.05271786 878.7451053 335 877 C335.46873535 876.58169922 335.9374707 876.16339844 336.42041016 875.73242188 C344.41872168 868.56856515 351.97122683 861.12716473 359 853 C359.79809082 852.07840088 359.79809082 852.07840088 360.61230469 851.13818359 C375.03697581 834.34546924 387.36101731 816.40072743 398 797 C398.6820752 795.77724365 398.6820752 795.77724365 399.37792969 794.52978516 C407.18003983 780.49526863 413.41672222 766.04789624 419 751 C419.30276855 750.1843457 419.60553711 749.36869141 419.91748047 748.52832031 C425.98606323 731.89961682 430.16160644 714.60087751 433.25 697.1875 C433.40098145 696.34292236 433.55196289 695.49834473 433.70751953 694.62817383 C436.53402589 677.75676693 437.37688033 661.02307471 437.3125 643.9375 C437.31034485 642.90441711 437.3081897 641.87133423 437.30596924 640.8069458 C437.25320356 625.01597663 436.77330273 609.58332008 434 594 C433.80132324 592.86079102 433.60264648 591.72158203 433.39794922 590.54785156 C423.64897537 536.20188649 400.90612596 485.77089302 366 443 C365.5776709 442.47325684 365.1553418 441.94651367 364.72021484 441.40380859 C357.82036949 432.82870306 350.19124839 424.9840756 342.4375 417.1875 C341.95462524 416.69935822 341.47175049 416.21121643 340.97424316 415.70828247 C334.33216538 409.01024796 327.41554297 402.83496038 320 397 C319.27965576 396.42564209 318.55931152 395.85128418 317.81713867 395.25952148 C298.04577802 379.58490765 276.72128125 366.89682965 254 356 C253.34966797 355.68208496 252.69933594 355.36416992 252.02929688 355.03662109 C173.44522177 316.88656887 84.98528988 326.59848796 0 326 C0 218.42 0 110.84 0 0 Z " fill="#0067B3" transform="translate(2051,764)"/>
<path d="M0 0 C0 107.58 0 215.16 0 326 C-45.54 326.33 -91.08 326.66 -138 327 C-181.38557983 331.48816343 -220.79150047 340.1201211 -260 359 C-260.81726563 359.38961914 -261.63453125 359.77923828 -262.4765625 360.18066406 C-283.70193562 370.41907876 -303.98908294 383.79714609 -322 399 C-322.56444824 399.46583496 -323.12889648 399.93166992 -323.71044922 400.41162109 C-338.75259454 412.83774114 -353.07754293 426.52759784 -365 442 C-365.92099083 443.12396122 -366.84574199 444.24484754 -367.7734375 445.36328125 C-406.23582194 491.97373347 -429.02909383 550.23473091 -436 610 C-436.14356934 611.12716431 -436.14356934 611.12716431 -436.29003906 612.27709961 C-439.19561284 638.44028144 -438.59233332 667.09643431 -434 693 C-433.80132324 694.1353418 -433.60264648 695.27068359 -433.39794922 696.44042969 C-422.75241816 755.46531426 -397.27300708 811.38402539 -356.265625 855.55078125 C-354.29242483 857.68387867 -352.38705297 859.85358987 -350.5 862.0625 C-343.89764121 869.64356139 -336.60794503 876.44977746 -329 883 C-328.36376709 883.54825439 -327.72753418 884.09650879 -327.07202148 884.66137695 C-230.75106024 967.00165758 -123.34377665 961.05844445 0 962 C0 1069.58 0 1177.16 0 1288 C-149.97615191 1288 -149.97615191 1288 -174.6875 1285.8125 C-175.38869965 1285.75097748 -176.08989929 1285.68945496 -176.81234741 1285.62606812 C-259.66891426 1278.23682123 -338.97020322 1254.90773608 -525.27636719 1144.42382812 C-527.71230065 1142.41159527 -530.17042475 1140.4269225 -532.625 1138.4375 C-550.59587184 1123.69704168 -550.59587184 1123.69704168 -557.3293457 1116.66967773 C-558.96931967 1115.03066239 -560.67112872 1113.54331459 -562.44140625 1112.046875 C-567.68459135 1107.48729656 -572.57240205 1102.5776528 -577.47290039 1097.6574707 C-579.05959946 1096.06541034 -580.65157742 1094.4787701 -582.24414062 1092.89257812 C-587.70757322 1087.43271494 -592.97968759 1081.87331523 -598 1076 C-599.61967817 1074.22429779 -601.24411718 1072.45291693 -602.875 1070.6875 C-607.79618347 1065.28529859 -612.41501653 1059.68770102 -617 1054 C-618.00934094 1052.76994984 -619.01982598 1051.5408379 -620.03125 1050.3125 C-650.73938779 1012.94337182 -676.29702108 972.18811894 -698 929 C-698.5451123 927.92443848 -699.09022461 926.84887695 -699.65185547 925.74072266 C-733.6157956 858.43519155 -753.6768552 784.10142768 -761.3125 709.25 C-761.39390228 708.45246307 -761.47530457 707.65492615 -761.55917358 706.83322144 C-763.63696952 686.15903124 -764.24373623 665.65004886 -764.25 644.875 C-764.25044186 644.20219624 -764.25088371 643.52939247 -764.25133896 642.83620071 C-764.25925734 619.77937714 -763.63335718 596.92144164 -761 574 C-760.87271515 572.88377258 -760.87271515 572.88377258 -760.74285889 571.74499512 C-750.43741659 482.47263571 -722.15462552 395.02456699 -642 266 C-640.99189401 264.63042432 -639.98407743 263.26063555 -638.9765625 261.890625 C-632.38793529 252.97609274 -625.5020646 244.33254995 -618.45605469 235.77636719 C-617.16038703 234.19567002 -615.87987367 232.60257855 -614.6015625 231.0078125 C-610.08573209 225.38340279 -605.35550612 220.02367381 -600.42358398 214.76489258 C-597.81759888 211.98556035 -595.27411042 209.17081411 -592.78930664 206.28222656 C-589.14159505 202.10609002 -585.30464063 198.15979895 -581.37890625 194.24609375 C-580.32351906 193.18927147 -580.32351906 193.18927147 -579.24681091 192.11109924 C-577.76985352 190.63346633 -576.29165258 189.15707543 -574.81225586 187.68188477 C-572.56834915 185.44333519 -570.32983296 183.19949527 -568.09179688 180.95507812 C-566.64615382 179.51009596 -565.20020055 178.06542408 -563.75390625 176.62109375 C-563.0953212 175.96048447 -562.43673615 175.29987518 -561.75819397 174.61924744 C-557.33258138 170.21551803 -552.73918176 166.06295028 -548 162 C-546.91762578 161.06159336 -545.83553273 160.12286215 -544.75390625 159.18359375 C-529.62356061 146.13670165 -514.22544132 133.66707744 -498 122 C-497.28344238 121.48195801 -496.56688477 120.96391602 -495.82861328 120.43017578 C-426.48850515 70.38246963 -347.38620122 34.75572944 -193.9375 3.75 C-192.64046143 3.59877686 -191.34342285 3.44755371 -190.00708008 3.29174805 C-127.14958141 -3.43173025 -62.52216255 0 0 0 Z " fill="#4CBEED" transform="translate(764,764)"/>
<path d="M0 0 C1.14540253 0.00060425 2.29080505 0.0012085 3.47091675 0.00183105 C21.64687078 0.02778201 39.64737693 0.43324976 57.75 2.1875 C58.41594177 2.25066406 59.08188354 2.31382813 59.76800537 2.37890625 C142.63135153 10.26674089 221.97861943 33.72478952 438.97265625 172.5234375 C440.93706904 174.36264596 442.90602005 176.19693227 444.875 178.03125 C446.29192169 179.35389352 447.70859174 180.67680667 449.125 182 C449.77903809 182.61012939 450.43307617 183.22025879 451.10693359 183.84887695 C462.33170341 194.36584282 462.33170341 194.36584282 467.25 200.1875 C469.4955794 202.79397609 471.79551512 205.27684521 474.25 207.6875 C477.96213359 211.35046626 481.35680882 215.22984601 484.75 219.1875 C485.65715539 220.2308138 486.56474081 221.27375379 487.47265625 222.31640625 C493.97617138 229.81060786 500.24201661 237.45086818 506.30078125 245.30859375 C507.83119722 247.29277187 509.36886187 249.27122063 510.90625 251.25 C534.92763144 282.28466094 555.49831373 315.4685102 573.75 350.1875 C574.24854492 351.13254395 574.74708984 352.07758789 575.26074219 353.05126953 C644.05399593 484.35704817 643.75 615.69826863 643.75 764.1875 C536.5 764.1875 429.25 764.1875 318.75 764.1875 C318.42 724.5875 318.09 684.9875 317.75 644.1875 C317.18679387 625.36652358 317.18679387 625.36652358 315.5 606.6875 C315.37141602 605.67236328 315.24283203 604.65722656 315.11035156 603.61132812 C307.18595958 544.13263545 282.66757077 481.64653275 240.91015625 437.48828125 C239.09375391 435.5536321 237.36464924 433.58285225 235.63671875 431.5703125 C231.14141563 426.41493955 226.33320199 421.58668915 221.5 416.75 C220.62214844 415.85990234 219.74429688 414.96980469 218.83984375 414.05273438 C212.79245808 407.99206748 206.47257509 402.48490446 199.75 397.1875 C199.02876953 396.61233643 198.30753906 396.03717285 197.56445312 395.44458008 C142.00396517 351.40519913 72.65514735 326.98659061 1.75 326.9375 C0.42908356 326.93648788 0.42908356 326.93648788 -0.91851807 326.93545532 C-76.61718696 327.02703389 -151.10119145 354.40390303 -207.77880859 404.87939453 C-209.09971635 406.05387574 -210.43381934 407.21347676 -211.76953125 408.37109375 C-223.54311833 418.69982934 -234.6254922 429.82778572 -244.25 442.1875 C-245.19904991 443.34992577 -246.15106959 444.50993091 -247.10546875 445.66796875 C-254.07248707 454.15870906 -260.38712514 462.90153427 -266.25 472.1875 C-266.61657715 472.76371094 -266.9831543 473.33992188 -267.36083984 473.93359375 C-290.00341042 509.77163277 -305.39334306 549.65742645 -312.5 591.4375 C-312.65106201 592.32155518 -312.80212402 593.20561035 -312.95776367 594.11645508 C-321.89689784 650.11587029 -316.84782288 707.4805262 -317.25 764.1875 C-424.83 764.1875 -532.41 764.1875 -643.25 764.1875 C-643.25 600.81206713 -643.25 600.81206713 -639.5 569 C-639.41696625 568.29001862 -639.3339325 567.58003723 -639.24838257 566.84854126 C-631.17407888 498.45328331 -611.73121353 432.13548712 -582.47851562 369.81640625 C-581.37116776 367.44678745 -580.28270086 365.06986422 -579.203125 362.6875 C-555.89764955 311.58141 -522.59640124 264.40553324 -486.0625 221.9375 C-485.59473145 221.39037354 -485.12696289 220.84324707 -484.64501953 220.27954102 C-474.22429751 208.24637079 -463.08561956 196.85568646 -451.81591797 185.62304688 C-449.85134799 183.66391344 -447.89228552 181.69938356 -445.93359375 179.734375 C-439.87534809 173.67259471 -433.81362382 167.70686833 -427.25 162.1875 C-426.05773579 161.14308569 -424.86763793 160.09619334 -423.6796875 159.046875 C-416.53489956 152.7842456 -409.2771779 146.73790425 -401.76171875 140.92578125 C-399.38070792 139.08213982 -397.03369187 137.20472418 -394.70703125 135.29296875 C-385.681714 127.89544715 -376.26600849 121.25897424 -366.57446289 114.7644043 C-364.13606327 113.11020588 -361.72726132 111.41834098 -359.3203125 109.71875 C-343.91244059 98.90064695 -327.71527401 89.29156595 -311.25 80.1875 C-310.22229492 79.61418945 -309.19458984 79.04087891 -308.13574219 78.45019531 C-241.5998447 41.45488452 -168.28365322 17.6429427 0 0 Z " fill="#4CBEED" transform="translate(1407.25,-0.1875)"/>
<path d="M0 0 C0.33 0.66 0.66 1.32 1 2 C-0.59025991 5.10100683 -2.2996944 7.76931277 -5 10 C-5.66 10 -6.32 10 -7 10 C-7.33 11.65 -7.66 13.3 -8 15 C-10.31 15.33 -12.62 15.66 -15 16 C-10.30233025 10.33870569 -5.25276628 5.14771096 0 0 Z " fill="#53BDE4" transform="translate(950,191)"/>
<path d="M0 0 C1.41583272 0.15371898 2.83259445 0.29903232 4.25 0.4375 C6.10625 0.7159375 6.10625 0.7159375 8 1 C8.33 1.66 8.66 2.32 9 3 C1.97326485 2.49656013 -5.01940909 1.95812032 -12 1 C-12 0.67 -12 0.34 -12 0 C-7.61712646 -0.77344827 -4.30994822 -1.05120688 0 0 Z " fill="#0C64A4" transform="translate(2217,1091)"/>
<path d="M0 0 C0.33 0.66 0.66 1.32 1 2 C-6.87746171 6.23632385 -6.87746171 6.23632385 -11.5625 5.25 C-12.366875 4.8375 -13.17125 4.425 -14 4 C-14 3.67 -14 3.34 -14 3 C-7.07 1.515 -7.07 1.515 0 0 Z " fill="#0D63A7" transform="translate(1478,2481)"/>
<path d="M0 0 C0.99 0.33 1.98 0.66 3 1 C3 1.66 3 2.32 3 3 C4.32 2.34 5.64 1.68 7 1 C6.30058404 4.14737182 5.23921302 7.02588876 4 10 C1.81024227 6.71536341 1.00193437 3.79303725 0 0 Z " fill="#0D63A8" transform="translate(793,2365)"/>
<path d="M0 0 C1 3 1 3 -0.125 5.9375 C-2.07639565 9.12477956 -3.96422279 10.86675115 -7 13 C-7.66 12.67 -8.32 12.34 -9 12 C-6.03 8.04 -3.06 4.08 0 0 Z " fill="#0965AA" transform="translate(1666,2355)"/>
<path d="M0 0 C2.05078125 0.03255208 4.1015625 0.06510417 6.15234375 0.09765625 C5.82234375 1.41765625 5.49234375 2.73765625 5.15234375 4.09765625 C1.7777166 3.55041942 0.06999375 3.04275625 -2.84765625 1.09765625 C-1.84765625 0.09765625 -1.84765625 0.09765625 0 0 Z " fill="#0964AB" transform="translate(1175.84765625,2769.90234375)"/>
<path d="M0 0 C0 0.66 0 1.32 0 2 C-0.66 2 -1.32 2 -2 2 C-2 2.66 -2 3.32 -2 4 C-1.34 4 -0.68 4 0 4 C0 4.66 0 5.32 0 6 C-3.14737182 5.30058404 -6.02588876 4.23921302 -9 3 C-3.2 0 -3.2 0 0 0 Z " fill="#0B64A7" transform="translate(1506,2474)"/>
<path d="M0 0 C1.125 1.75 1.125 1.75 2 4 C1.25 5.9375 1.25 5.9375 0 8 C-0.67966676 9.66140763 -1.34938905 11.32700041 -2 13 C-2.66 13 -3.32 13 -4 13 C-3.27991594 8.39146203 -1.68704061 4.32762591 0 0 Z " fill="#0B64A6" transform="translate(1704,2284)"/>
<path d="M0 0 C1.33332095 2.6666419 0.67102033 4.16680303 0 7 C-2.31 7.33 -4.62 7.66 -7 8 C-6.02133662 6.85373678 -5.04205413 5.70800212 -4.0625 4.5625 C-3.51722656 3.92441406 -2.97195312 3.28632812 -2.41015625 2.62890625 C-1.63204305 1.73008851 -0.84063472 0.84063472 0 0 Z " fill="#55BDE5" transform="translate(206,935)"/>
<path d="M0 0 C2.97 0.99 5.94 1.98 9 3 C8.34 3.66 7.68 4.32 7 5 C5.68 5 4.36 5 3 5 C3 4.34 3 3.68 3 3 C2.01 2.67 1.02 2.34 0 2 C0 1.34 0 0.68 0 0 Z M1 5 C1.99 5.495 1.99 5.495 3 6 C2.01 6.495 2.01 6.495 1 7 C1 6.34 1 5.68 1 5 Z " fill="#0C64A5" transform="translate(1285,2465)"/>
<path d="M0 0 C0.33 0 0.66 0 1 0 C1.33 4.95 1.66 9.9 2 15 C1.01 15.33 0.02 15.66 -1 16 C-0.67 10.72 -0.34 5.44 0 0 Z " fill="#0C659F" transform="translate(1724,2193)"/>
<path d="M0 0 C0.66 0 1.32 0 2 0 C2 0.66 2 1.32 2 2 C2.66 2 3.32 2 4 2 C4 1.34 4 0.68 4 0 C4.66 0 5.32 0 6 0 C4.25 5.75 4.25 5.75 2 8 C1.34 5.36 0.68 2.72 0 0 Z " fill="#0965A7" transform="translate(2474,1310)"/>
<path d="M0 0 C2.31 0.33 4.62 0.66 7 1 C7.66 2.98 8.32 4.96 9 7 C5.18315774 5.44499019 2.80804268 2.96404505 0 0 Z " fill="#57BAE2" transform="translate(233,1903)"/>
<path d="M0 0 C1.32 0.33 2.64 0.66 4 1 C4 3.64 4 6.28 4 9 C1.49701566 6.06171403 0.53069061 3.82097239 0 0 Z " fill="#57BAE1" transform="translate(52,1661)"/>
<path d="M0 0 C0.66 0.33 1.32 0.66 2 1 C-0.57784846 3.64752004 -2.91648098 5.94432065 -6 8 C-6.99 7.67 -7.98 7.34 -9 7 C-6.03 4.69 -3.06 2.38 0 0 Z " fill="#0A64AC" transform="translate(2367,1657)"/>
<path d="M0 0 C2.96404505 2.80804268 5.44499019 5.18315774 7 9 C6.01 8.67 5.02 8.34 4 8 C4 7.34 4 6.68 4 6 C2.68 6 1.36 6 0 6 C0 4.02 0 2.04 0 0 Z " fill="#56BBE5" transform="translate(392,1602)"/>
<path d="M0 0 C0.66 0.33 1.32 0.66 2 1 C2 2.98 2 4.96 2 7 C1.01 7 0.02 7 -1 7 C-1 7.99 -1 8.98 -1 10 C-1.66 9.67 -2.32 9.34 -3 9 C-2.01 6.03 -1.02 3.06 0 0 Z " fill="#55BAE1" transform="translate(796,441)"/>
<path d="M0 0 C2.25 1.9375 2.25 1.9375 4 4 C3.67 4.66 3.34 5.32 3 6 C2.01 5.67 1.02 5.34 0 5 C0 4.34 0 3.68 0 3 C-1.32 3 -2.64 3 -4 3 C-4 2.34 -4 1.68 -4 1 C-2.25 0.25 -2.25 0.25 0 0 Z " fill="#51BEE1" transform="translate(1940,283)"/>
<path d="M0 0 C2.31 0.33 4.62 0.66 7 1 C7 2.65 7 4.3 7 6 C1.125 2.25 1.125 2.25 0 0 Z " fill="#57BAE7" transform="translate(1601,391)"/>
<path d="M0 0 C-0.66 1.32 -1.32 2.64 -2 4 C-4.97 3.505 -4.97 3.505 -8 3 C-5.36657694 0.36657694 -3.69534435 0 0 0 Z " fill="#57BBE6" transform="translate(1156,52)"/>
<path d="M0 0 C2.97 0.495 2.97 0.495 6 1 C6.33 2.32 6.66 3.64 7 5 C6.01 5 5.02 5 4 5 C1.8125 2.5 1.8125 2.5 0 0 Z " fill="#52BDE1" transform="translate(183,1857)"/>
<path d="M0 0 C2 3 2 3 3 6 C2.360625 6.12375 1.72125 6.2475 1.0625 6.375 C0.0415625 6.684375 0.0415625 6.684375 -1 7 C-1.33 7.66 -1.66 8.32 -2 9 C-1.34 6.03 -0.68 3.06 0 0 Z " fill="#0D63A6" transform="translate(2476,1497)"/>
<path d="M0 0 C0.99 0.33 1.98 0.66 3 1 C1.515 4.465 1.515 4.465 0 8 C-1.125 6.25 -1.125 6.25 -2 4 C-1.125 1.75 -1.125 1.75 0 0 Z " fill="#0965A7" transform="translate(1970,2478)"/>
<path d="M0 0 C0.66 0 1.32 0 2 0 C2 0.66 2 1.32 2 2 C3.65 1.67 5.3 1.34 7 1 C7 1.99 7 2.98 7 4 C5.02 4 3.04 4 1 4 C0.67 2.68 0.34 1.36 0 0 Z " fill="#4CC1DF" transform="translate(81,1720)"/>
<path d="M0 0 C0.33 0.66 0.66 1.32 1 2 C-0.4375 4.625 -0.4375 4.625 -2 7 C-2.99 6.67 -3.98 6.34 -5 6 C-3.35 4.02 -1.7 2.04 0 0 Z " fill="#55BFDB" transform="translate(190,951)"/>
<path d="M0 0 C0.33 0.66 0.66 1.32 1 2 C-0.4375 4.625 -0.4375 4.625 -2 7 C-2.99 6.67 -3.98 6.34 -5 6 C-3.35 4.02 -1.7 2.04 0 0 Z " fill="#52BEDC" transform="translate(198,943)"/>
<path d="M0 0 C0.33 0.66 0.66 1.32 1 2 C-0.4375 4.625 -0.4375 4.625 -2 7 C-2.99 6.67 -3.98 6.34 -5 6 C-3.35 4.02 -1.7 2.04 0 0 Z " fill="#55BFDB" transform="translate(958,183)"/>
<path d="M0 0 C1.5 1.375 1.5 1.375 3 3 C3 3.66 3 4.32 3 5 C2.34 5 1.68 5 1 5 C1 5.66 1 6.32 1 7 C0.34 7 -0.32 7 -1 7 C-1.04254356 5.00045254 -1.04080783 2.99958364 -1 1 C-0.67 0.67 -0.34 0.34 0 0 Z " fill="#0766A7" transform="translate(1137,2339)"/>
<path d="M0 0 C0.33 0.66 0.66 1.32 1 2 C-0.4375 4.625 -0.4375 4.625 -2 7 C-2.99 6.34 -3.98 5.68 -5 5 C-3.35 3.35 -1.7 1.7 0 0 Z " fill="#55BFDA" transform="translate(174,967)"/>
<path d="M0 0 C0.66 0.33 1.32 0.66 2 1 C0.515 4.465 0.515 4.465 -1 8 C-1.66 8 -2.32 8 -3 8 C-2.25 2.25 -2.25 2.25 0 0 Z " fill="#55BEE2" transform="translate(263,888)"/>
<path d="M0 0 C2 2 2 2 2 6 C1.34 6 0.68 6 0 6 C0 6.66 0 7.32 0 8 C-0.66 8 -1.32 8 -2 8 C-1.34 5.36 -0.68 2.72 0 0 Z " fill="#56BAE6" transform="translate(804,418)"/>
<path d="M0 0 C1.32 1.65 2.64 3.3 4 5 C2.68 5.33 1.36 5.66 0 6 C-1.125 2.25 -1.125 2.25 0 0 Z " fill="#4BC2DE" transform="translate(1915,248)"/>
<path d="M0 0 C1.98 0.99 1.98 0.99 4 2 C4 2.99 4 3.98 4 5 C2.68 4.67 1.36 4.34 0 4 C0 2.68 0 1.36 0 0 Z " fill="#4FBFE0" transform="translate(1858,185)"/>
<path d="M0 0 C3.465 1.485 3.465 1.485 7 3 C3.25 5 3.25 5 1 5 C0.67 3.35 0.34 1.7 0 0 Z " fill="#55BBE6" transform="translate(1673,57)"/>
</svg>
